<svg xmlns="http://www.w3.org/2000/svg" width="268" height="355" viewBox="0 0 268 355">
  <g id="Groupe_22" data-name="Groupe 22" transform="translate(-1685 -750)">
    <g id="Groupe_21" data-name="Groupe 21" transform="translate(-11404 113)">
      <circle id="Ellipse_8" data-name="Ellipse 8" cx="51.5" cy="51.5" r="51.5" transform="translate(13189 768)" fill="#49c7e3"/>
      <path id="Tracé_18" data-name="Tracé 18" d="M50.5,0A50.5,50.5,0,1,1,0,50.5,50.5,50.5,0,0,1,50.5,0Z" transform="translate(13241 637)" fill="#49c7e3"/>
      <circle id="Ellipse_10" data-name="Ellipse 10" cx="14" cy="14" r="14" transform="translate(13090 879)" fill="#49c7e3"/>
      <circle id="Ellipse_11" data-name="Ellipse 11" cx="22.5" cy="22.5" r="22.5" transform="translate(13132 849)" fill="#49c7e3"/>
      <path id="Tracé_13" data-name="Tracé 13" d="M36,0A36,36,0,1,1,0,36,36,36,0,0,1,36,0Z" transform="translate(13089 920)" fill="#49c7e3"/>
      <circle id="Ellipse_13" data-name="Ellipse 13" cx="35.5" cy="35.5" r="35.5" transform="translate(13115 765)" fill="#49c7e3"/>
      <ellipse id="Ellipse_14" data-name="Ellipse 14" cx="17.5" cy="18" rx="17.5" ry="18" transform="translate(13206 712)" fill="#49c7e3"/>
      <path id="Tracé_17" data-name="Tracé 17" d="M51.5,0A51.5,51.5,0,1,1,0,51.5,51.5,51.5,0,0,1,51.5,0Z" transform="translate(13175 881)" fill="#49c7e3"/>
      <circle id="Ellipse_17" data-name="Ellipse 17" cx="32.5" cy="32.5" r="32.5" transform="translate(13292 871)" fill="#49c7e3"/>
      <circle id="Ellipse_18" data-name="Ellipse 18" cx="25" cy="25" r="25" transform="translate(13295 754)" fill="#49c7e3"/>
    </g>
  </g>
</svg>
